<svg width="32" height="32" viewBox="0 0 32 32" fill="none" xmlns="http://www.w3.org/2000/svg">
<path d="M24 29.3333H8.00004C6.52728 29.3333 5.33337 28.1394 5.33337 26.6667V5.33333C5.33337 3.86057 6.52728 2.66667 8.00004 2.66667H17.3334C17.3479 2.6673 17.3623 2.66999 17.376 2.67467C17.3891 2.67869 17.4025 2.68137 17.416 2.68267C17.5336 2.6902 17.6497 2.71306 17.7614 2.75067L17.7987 2.76267C17.8289 2.77291 17.8583 2.78539 17.8867 2.8C18.032 2.86456 18.1643 2.95491 18.2774 3.06667L26.2774 11.0667C26.3891 11.1797 26.4795 11.3121 26.544 11.4573C26.5574 11.4867 26.5667 11.5173 26.5774 11.548L26.5894 11.5827C26.6266 11.6939 26.6486 11.8096 26.6547 11.9267C26.6568 11.9389 26.6599 11.951 26.664 11.9627C26.6664 11.975 26.6673 11.9875 26.6669 12V26.6667C26.6669 28.1394 25.4728 29.3333 24 29.3333ZM8.00004 5.33333V26.6667H24V13.3333H17.3334C16.597 13.3333 16 12.7364 16 12V5.33333H8.00004ZM18.6667 7.21867V10.6667H22.1147L18.6667 7.21867Z" fill="#573065"/>
</svg>
